<svg width="1024" height="1024" viewBox="0 0 1024 1024" xmlns="http://www.w3.org/2000/svg">
  <defs>
    <linearGradient id="bg" x1="0" y1="0" x2="0.25" y2="1">
      <stop offset="0" stop-color="#6E63FF"/>
      <stop offset="0.52" stop-color="#7A3DD8"/>
      <stop offset="1" stop-color="#3A1C8C"/>
    </linearGradient>
    <radialGradient id="halo" cx="0.5" cy="0.40" r="0.55">
      <stop offset="0" stop-color="#FFFFFF" stop-opacity="0.95"/>
      <stop offset="0.35" stop-color="#FFE6AE" stop-opacity="0.55"/>
      <stop offset="1" stop-color="#FFE6AE" stop-opacity="0"/>
    </radialGradient>
    <linearGradient id="glass" x1="0" y1="0" x2="0" y2="1">
      <stop offset="0" stop-color="#FFFFFF" stop-opacity="0.34"/>
      <stop offset="1" stop-color="#FFFFFF" stop-opacity="0.06"/>
    </linearGradient>
    <linearGradient id="cross" x1="0.3" y1="0" x2="0.7" y2="1">
      <stop offset="0" stop-color="#FFFFFF"/>
      <stop offset="1" stop-color="#FFCF63"/>
    </linearGradient>
    <linearGradient id="sheen" x1="0" y1="0" x2="0" y2="1">
      <stop offset="0" stop-color="#FFFFFF" stop-opacity="0.5"/>
      <stop offset="1" stop-color="#FFFFFF" stop-opacity="0"/>
    </linearGradient>
  </defs>

  <rect x="80" y="80" width="864" height="864" rx="196" fill="url(#bg)"/>
  <rect x="80" y="80" width="864" height="864" rx="196" fill="url(#halo)"/>

  <rect x="248" y="232" width="528" height="438" rx="60" fill="url(#glass)"
        stroke="#FFFFFF" stroke-opacity="0.40" stroke-width="3"/>
  <rect x="284" y="270" width="456" height="150" rx="40" fill="url(#sheen)" opacity="0.7"/>

  <g fill="url(#cross)">
    <rect x="476" y="286" width="72" height="330" rx="22"/>
    <rect x="392" y="372" width="240" height="72" rx="22"/>
  </g>

  <rect x="430" y="712" width="164" height="22" rx="11" fill="#FFFFFF" fill-opacity="0.55"/>
  <rect x="362" y="752" width="300" height="24" rx="12" fill="#FFFFFF" fill-opacity="0.32"/>

  <path d="M120 250 Q512 70 904 250 Q904 150 820 116 Q512 70 204 116 Q120 150 120 250 Z"
        fill="url(#sheen)" opacity="0.5"/>
</svg>
